<svg width="611" height="619" viewBox="0 0 611 619" fill="#1AD26F" xmlns="http://www.w3.org/2000/svg">
<path d="M109.5 618C57.1 617.4 57.5 617.4 42.5 610C27.2 602.5 15.4 590.3 7.8 574.2C0.9 559.7 1.2 564.6 0.8 440.5L0.5 328.5H231.5L239 330.8C250.4 334.4 258.6 339.4 267 347.9C275.7 356.7 281.1 366 284 377.6C285.9 385.1 286 389.1 286 501.9V618.5H221.2C185.6 618.5 135.4 618.3 109.5 618Z"/>
<path d="M325.6 500.8C325.8 393.8 325.9 382.9 327.5 377C333.5 354 350.3 337.3 374.5 330.3C380 328.7 389.8 328.6 495.8 328.2L611 327.9V438.4C611 556.7 611 555.9 605.9 569.4C602.2 579.3 597 587.1 588.1 596.1C578.6 605.6 570.6 610.7 558.2 614.9L550.5 617.5L325.5 618L325.6 500.8Z"/>
<path d="M0.7 177.3C0.9 68 0.9 65.3 2.9 57.5C4 53.1 6.9 45.7 9.2 41C12.6 34.1 15.2 30.7 23 23C33.9 12 43.3 6.5 57.2 2.7L65.5 0.5H285.5L285.8 116C286.1 245.5 286.4 239 278.8 254.1C271.5 268.8 258.5 280 242.3 285.7L234.5 288.5L0.5 289L0.7 177.3Z"/>
<path d="M376.7 287.5C372.9 286.7 365.9 284.2 361.2 281.9C345.3 274.3 332 258.1 327.5 241C326.2 236.3 326 217.8 326 117.8V0H430.8C494.2 0 538.9 0.4 544.3 1C576.2 4.7 602.8 29.4 609.5 61.5C610.8 67.9 611 84.3 611 179V289L497.3 288.9C405.8 288.8 382.2 288.5 376.7 287.5Z"/>
</svg>
